<svg width="26" height="26" viewBox="0 0 26 26" fill="none" xmlns="http://www.w3.org/2000/svg">
<circle cx="13" cy="13" r="13" fill="#FF6A6A"/>
<path d="M11.494 14.626L10.936 6.4H14.284L13.726 14.626H11.494ZM12.61 19.144C12.106 19.144 11.692 18.982 11.368 18.658C11.044 18.334 10.882 17.95 10.882 17.506C10.882 17.05 11.044 16.672 11.368 16.372C11.692 16.06 12.106 15.904 12.61 15.904C13.126 15.904 13.54 16.06 13.852 16.372C14.176 16.672 14.338 17.05 14.338 17.506C14.338 17.95 14.176 18.334 13.852 18.658C13.54 18.982 13.126 19.144 12.61 19.144Z" fill="#FDFDFD"/>
</svg>
